<svg xmlns="http://www.w3.org/2000/svg" width="647" height="99" viewBox="0 0 647 99"><title>logo_wide</title><path d="M44.6,34.5a17.1,17.1,0,0,0,.1-3.2A48.5,48.5,0,0,0,43.1,25c-1.6-4.6-3.3-9.2-5-13.7-.1-.2-.1-.4-.2-.5-.6-1.9-.3-3,1.3-4.1l6.8-5L47.7.6A5.6,5.6,0,0,1,52.1.3L76.5,9.1a4,4,0,0,1,2.9,3.1c.9,3,1.8,5.9,2.6,8.9s-.1,4-2.3,5.3c-4.4,2.6-8.8,5.2-13.1,7.9a39.5,39.5,0,0,0-7.4,5.5l-.5.6c1.4.7,2.9,1.2,4.2,2,5.4,2.9,9.5,7.1,11.4,12.9,3.1,9.1,1.1,17.2-5.2,24.3a27.3,27.3,0,0,1-16.8,8.7,42.5,42.5,0,0,1-10.7.2,34,34,0,0,0-11.9.8A17.7,17.7,0,0,0,23,92.7a33.9,33.9,0,0,1-6.6,4.6A12.3,12.3,0,0,1,9.6,99H9.4c-1.9-.3-3.2-1.5-1.6-3.5a28.5,28.5,0,0,0,3.1-4.6c3-5.3,2.7-10.6-.4-15.7-1.6-2.7-3.5-5.3-5.3-8a23.4,23.4,0,0,1-2.4-23c3.4-8,9.3-13.1,17.7-15.1a27.6,27.6,0,0,1,4-.6c.7-.1,1.5.1,2.2,0,6.4-.2,12.1,2.1,17.3,5.6ZM61.1,8.3h-.3L51,4.6a1.6,1.6,0,0,0-1.5.2L43,9.3c-.3.2-.3.7-.5,1s.1.4.2.6c2.3,6.4,4.7,12.9,7.1,19.3l1.8,4.7.3,1c.2.6.5.7,1.2.5l.6-.2,5.7-3,12.5-7.4c1.8-1,3.6-2.2,5.4-3.3.1-.3.3-.7.2-1-.7-2.5-1.4-5-2.2-7.6a2,2,0,0,0-.9-.9L63.8,9.2ZM44.8,40.8,44,40a28.1,28.1,0,0,0-7.9-5.3,20.4,20.4,0,0,0-7.7-2,22.1,22.1,0,0,0-8.1.7,20.3,20.3,0,0,0-10,6.5A21.4,21.4,0,0,0,5.2,51.6a17.5,17.5,0,0,0,1,8.5,29.8,29.8,0,0,0,4.3,7.3,1.6,1.6,0,0,0,.4.7c2.1,3.3,4.2,6.6,5.3,10.5a14.2,14.2,0,0,1,.6,5.8A18.7,18.7,0,0,1,14,92.6l-1.1,1.9v.2l1.2-.5A40.1,40.1,0,0,0,20.6,90a39.2,39.2,0,0,1,5-3.3A26.5,26.5,0,0,1,37,84.3c1.9-.1,3.9.1,5.8.1a50,50,0,0,0,9.5-.4,25.2,25.2,0,0,0,7.6-2.5,22.4,22.4,0,0,0,6.6-5.2,19,19,0,0,0,3.8-6.6,20.4,20.4,0,0,0,1.1-8.1A19,19,0,0,0,61.2,46.4a30.3,30.3,0,0,0-12.9-3.2,2.3,2.3,0,0,1-1.7-.7Z" fill="#63339e"/><path d="M71.4,61.6A19,19,0,0,0,61.2,46.4a30.3,30.3,0,0,0-12.9-3.2,2.3,2.3,0,0,1-1.7-.7l-1.8-1.7L44,40a28.1,28.1,0,0,0-7.9-5.3,20.4,20.4,0,0,0-7.7-2,22.1,22.1,0,0,0-8.1.7,20.3,20.3,0,0,0-10,6.5A21.4,21.4,0,0,0,5.2,51.6a17.5,17.5,0,0,0,1,8.5,33.7,33.7,0,0,0,4.7,8c2.1,3.3,4.2,6.6,5.3,10.5a14.2,14.2,0,0,1,.6,5.8A18.7,18.7,0,0,1,14,92.6l-1.1,1.9v.2l1.2-.5A40.1,40.1,0,0,0,20.6,90a39.2,39.2,0,0,1,5-3.3A26.5,26.5,0,0,1,37,84.3c1.9-.1,3.9.1,5.8.1a50,50,0,0,0,9.5-.4,25.2,25.2,0,0,0,7.6-2.5,22.4,22.4,0,0,0,6.6-5.2,19,19,0,0,0,3.8-6.6A20.4,20.4,0,0,0,71.4,61.6Z" fill="#8036b6"/><path d="M53.1,36.4c-.7.2-1,.1-1.2-.5l-.3-1a4.3,4.3,0,0,0,.2-1.1c.1-4.2.1-8.5.2-12.8,0-2.5.1-5,.1-7.4l.3-.2,2.1.9,8.7,3.2,3.7,1.2-.7.9-5.6,7-6.4,8.1A9.9,9.9,0,0,0,53.1,36.4Z" fill="#cbaaff"/><path d="M53.1,36.4a9.1,9.1,0,0,1,1.1-1.6l6.4-8.1,5.6-7,.7-.9,6.8,2.4,3.6,1.3c-1.8,1.1-3.6,2.3-5.4,3.3L59.4,33.2l-5.7,3Z" fill="#ac82ee"/><path d="M52.1,13.6c0,2.4-.1,4.9-.1,7.4-.1,4.3-.1,8.6-.2,12.8a4.3,4.3,0,0,1-.2,1.1l-1.8-4.7c-2.4-6.4-4.8-12.9-7.1-19.3-.1-.2-.1-.4-.2-.6h1L48,12Z" fill="#ac82ee"/><path d="M77.3,22.5l-3.6-1.3-6.8-2.4a3.6,3.6,0,0,0-.4-1.1L63.8,10c-.1-.2,0-.4,0-.7l10.6,3.8a2,2,0,0,1,.9.9c.8,2.6,1.5,5.1,2.2,7.6C77.6,21.8,77.4,22.2,77.3,22.5Z" fill="#c19efb"/><path d="M52.1,13.6c-1.3-.5-2.7-1.1-4.1-1.5l-4.5-1.7h-1c.2-.3.2-.8.5-1l6.5-4.5A1.6,1.6,0,0,1,51,4.7l9.8,3.6h.3l-.3.3-8.4,4.8Z" fill="#c19efd"/><path d="M52.4,13.4l8.4-4.8.3-.3,2.7.9c0,.3-.1.5,0,.7l2.7,7.7a3.6,3.6,0,0,1,.4,1.1l-3.7-1.2-8.7-3.2Z" fill="#dac1ff"/><path d="M124.1,26.3h35.8V38.1H139v9.8h18.9V59.2H139v18H124.1Zm48,49.4a16.3,16.3,0,0,1-7-7,23.2,23.2,0,0,1-2.5-11h0a21.7,21.7,0,0,1,2.6-10.9,16.5,16.5,0,0,1,7.1-7,22.9,22.9,0,0,1,10.8-2.4A23.4,23.4,0,0,1,194,39.8a17.5,17.5,0,0,1,7.1,6.9,22.1,22.1,0,0,1,2.5,11h0a22.5,22.5,0,0,1-2.5,11.1,16.6,16.6,0,0,1-7,6.9,24.8,24.8,0,0,1-11,2.3A25.1,25.1,0,0,1,172.1,75.7Zm14.2-9.5a7.4,7.4,0,0,0,2-3.3,19,19,0,0,0,.6-5.2h0a15.6,15.6,0,0,0-.7-5.2,7.7,7.7,0,0,0-2-3.3,4.9,4.9,0,0,0-6.2,0,8.8,8.8,0,0,0-2,3.3,18.7,18.7,0,0,0-.7,5.2h0a18.7,18.7,0,0,0,.7,5.2,6.6,6.6,0,0,0,2,3.3,5,5,0,0,0,3.2,1.1A4.9,4.9,0,0,0,186.3,66.2Zm30.3,9.5a16.5,16.5,0,0,1-7.1-7,23.2,23.2,0,0,1-2.4-11h0a21.7,21.7,0,0,1,2.5-10.9,17.1,17.1,0,0,1,7.1-7,25.7,25.7,0,0,1,21.7,0,16.9,16.9,0,0,1,7.1,6.9,22.1,22.1,0,0,1,2.6,11h0a23.6,23.6,0,0,1-2.5,11.1,16.9,16.9,0,0,1-7.1,6.9,27.2,27.2,0,0,1-21.9,0Zm14.1-9.5a6.6,6.6,0,0,0,2-3.3,18.7,18.7,0,0,0,.7-5.2h0a15.4,15.4,0,0,0-.8-5.2,6.8,6.8,0,0,0-2-3.3,4.9,4.9,0,0,0-3.1-1.1,4.6,4.6,0,0,0-3,1.1,6.8,6.8,0,0,0-2,3.3,15.6,15.6,0,0,0-.7,5.2h0a19,19,0,0,0,.6,5.2,7.4,7.4,0,0,0,2,3.3,5.2,5.2,0,0,0,3.2,1.1A4.9,4.9,0,0,0,230.7,66.2Zm27.8,9.5a14.6,14.6,0,0,1-5.2-7,29.8,29.8,0,0,1-1.8-11h0a30,30,0,0,1,1.8-11.1,14.8,14.8,0,0,1,5.2-6.9,14.5,14.5,0,0,1,8.3-2.3,12.2,12.2,0,0,1,7.2,2.1,12.1,12.1,0,0,1,4.4,5.7h.2V26.3h14.5V77.2H278.6V70.5h-.2A11,11,0,0,1,274,76a12.5,12.5,0,0,1-7.3,2A14.4,14.4,0,0,1,258.5,75.7Zm17.2-10.3a6.2,6.2,0,0,0,2.2-3,12.9,12.9,0,0,0,.7-4.7h0a13.3,13.3,0,0,0-.7-4.7,6.9,6.9,0,0,0-2.2-3,5.9,5.9,0,0,0-3.3-1,6.4,6.4,0,0,0-3.3,1,6.8,6.8,0,0,0-2.1,3,11.3,11.3,0,0,0-.8,4.7h0a12.7,12.7,0,0,0,.7,4.6,7.8,7.8,0,0,0,2.2,3,5.7,5.7,0,0,0,3.3,1.1A5.9,5.9,0,0,0,275.7,65.4Zm71.2,11.8h15.8L346.1,26.3H327.3L310.7,77.2h15.7L329,67.1h15.3ZM331.8,56.5l4.7-18.1h.3l4.7,18.1Zm38.5,19.2a14.6,14.6,0,0,1-5.2-7,29.8,29.8,0,0,1-1.8-11h0a30,30,0,0,1,1.8-11.1,14.8,14.8,0,0,1,5.2-6.9,15,15,0,0,1,8.3-2.3,12.2,12.2,0,0,1,7.2,2.1,11.5,11.5,0,0,1,4.4,5.7h.3V26.3H405V77.2H390.5V70.5h-.3a10.5,10.5,0,0,1-4.4,5.5,12.2,12.2,0,0,1-7.2,2A14.7,14.7,0,0,1,370.3,75.7Zm17.3-10.3a6.8,6.8,0,0,0,2.1-3,12.8,12.8,0,0,0,.8-4.7h0a13.2,13.2,0,0,0-.8-4.7,6.2,6.2,0,0,0-2.2-3,5.9,5.9,0,0,0-3.3-1,5.8,5.8,0,0,0-3.2,1,6.2,6.2,0,0,0-2.2,3,13.2,13.2,0,0,0-.8,4.7h0a12.6,12.6,0,0,0,.8,4.6,6.2,6.2,0,0,0,2.2,3,5.2,5.2,0,0,0,3.2,1.1A6.5,6.5,0,0,0,387.6,65.4Zm28.8,10.3a14.6,14.6,0,0,1-5.2-7,29.8,29.8,0,0,1-1.8-11h0a30,30,0,0,1,1.8-11.1,14.8,14.8,0,0,1,5.2-6.9,14.5,14.5,0,0,1,8.3-2.3,12.2,12.2,0,0,1,7.2,2.1,12.1,12.1,0,0,1,4.4,5.7h.2V26.3H451V77.2H436.5V70.5h-.2a11,11,0,0,1-4.4,5.5,12.5,12.5,0,0,1-7.3,2A14.4,14.4,0,0,1,416.4,75.7Zm17.2-10.3a6.2,6.2,0,0,0,2.2-3,12.9,12.9,0,0,0,.7-4.7h0a13.3,13.3,0,0,0-.7-4.7,7.8,7.8,0,0,0-2.2-3,5.9,5.9,0,0,0-3.3-1,6.1,6.1,0,0,0-3.3,1,6.8,6.8,0,0,0-2.1,3,11.3,11.3,0,0,0-.8,4.7h0a12.7,12.7,0,0,0,.7,4.6,6.9,6.9,0,0,0,2.2,3,5.5,5.5,0,0,0,3.3,1.1A5.9,5.9,0,0,0,433.6,65.4Zm22.8-27.2h14.5v39H456.4Zm2.2-5.5a6.7,6.7,0,0,1,0-9.7,7.5,7.5,0,0,1,10.2,0,6.5,6.5,0,0,1,2,4.8,6.6,6.6,0,0,1-2,4.9,7.5,7.5,0,0,1-10.2,0Zm24.8,42.5c-2.4-2-3.6-5.2-3.6-9.8V48.7h-5.1V38.2h5.1V29.7h14.5v8.5h6.9V48.7h-6.9V63.2a4.6,4.6,0,0,0,1.1,3.4,5,5,0,0,0,3.3,1h2.5V77.5l-2.8.4h-3.9C489.5,78,485.8,77.1,483.4,75.2Zm22.5-37h14.5v39H505.9Zm2.2-5.5a6.7,6.7,0,0,1,0-9.7,6.6,6.6,0,0,1,5.1-2,6.8,6.8,0,0,1,7.1,6.8,7,7,0,0,1-2,4.9,7.3,7.3,0,0,1-5.1,2A6.9,6.9,0,0,1,508.1,32.7Zm14.7,5.5h15.6L544,65.5h.3l5.5-27.3h15.1l-12.5,39h-17Zm82,18.7a20.9,20.9,0,0,0-2.4-10.3,17,17,0,0,0-7-6.8,24.2,24.2,0,0,0-21,0,16.6,16.6,0,0,0-6.9,7A21.7,21.7,0,0,0,565,57.7h0a23.4,23.4,0,0,0,2.5,10.9,16.9,16.9,0,0,0,7,7A22.8,22.8,0,0,0,585.4,78a23.7,23.7,0,0,0,8.5-1.3,15.9,15.9,0,0,0,5.7-3.3,14.2,14.2,0,0,0,3.3-4.2,17,17,0,0,0,1.6-4.2v-.4H591.7a3.8,3.8,0,0,1-.9,1.3,5.3,5.3,0,0,1-2,1.5,7.3,7.3,0,0,1-3.2.6,6.2,6.2,0,0,1-3.4-.9,5.8,5.8,0,0,1-2.3-2.6,10,10,0,0,1-.7-3.6h25.6ZM582,48.2a6,6,0,0,1,3.3-.9,5.7,5.7,0,0,1,3.2.9,5.6,5.6,0,0,1,2.2,2.6l.6,2H579.8v-2A6.1,6.1,0,0,1,582,48.2Zm34.9,28.2a14.1,14.1,0,0,1-6.4-4.6,12.5,12.5,0,0,1-2.8-6.8v-.3h13.9V65a4.4,4.4,0,0,0,1.8,2.6,6.1,6.1,0,0,0,3.8,1,8.8,8.8,0,0,0,2.4-.3,3.5,3.5,0,0,0,1.6-.9,2.1,2.1,0,0,0,.5-1.3h0a2,2,0,0,0-1-1.7,10.3,10.3,0,0,0-3.4-1.1l-7-1.3c-3.9-.7-6.8-2.1-8.8-4.1a10.3,10.3,0,0,1-3.1-7.5h0a11.4,11.4,0,0,1,2.2-6.9,14.2,14.2,0,0,1,6.3-4.5,28.4,28.4,0,0,1,9.8-1.5,24.5,24.5,0,0,1,10,1.8,14.2,14.2,0,0,1,6.1,4.7,11.3,11.3,0,0,1,2.1,6.6v.2H631.8v-.3a4.3,4.3,0,0,0-1.4-2.5,5.7,5.7,0,0,0-3.6-1.1,5.3,5.3,0,0,0-2.3.4,3.5,3.5,0,0,0-1.6.9,2,2,0,0,0-.5,1.4h0a2,2,0,0,0,.9,1.7,10.2,10.2,0,0,0,3.6,1.1l7.1,1.3c4.2.8,7.2,2.1,9.2,3.8a8.6,8.6,0,0,1,2.9,7h0a12.2,12.2,0,0,1-2.3,7.3,15.6,15.6,0,0,1-6.6,4.7,27.4,27.4,0,0,1-9.9,1.6A28.8,28.8,0,0,1,616.9,76.4Z" fill="#fff"/></svg>