<svg height="99" viewBox="0 0 81.4 99" width="81.4" xmlns="http://www.w3.org/2000/svg"><g transform="translate(-.8 -.5)"><path d="m44.6 35a17.6 17.6 0 0 0 .1-3.2 44.7 44.7 0 0 0 -1.6-6.3c-1.6-4.6-3.3-9.2-5-13.7-.1-.2-.1-.4-.2-.5-.6-1.9-.3-3 1.3-4.1l6.8-5 1.7-1.1a5.6 5.6 0 0 1 4.4-.3l24.4 8.8a4.2 4.2 0 0 1 2.9 3.1c.8 3 1.7 5.9 2.6 8.9s-.2 4-2.3 5.3c-4.4 2.6-8.8 5.2-13.1 7.9a39.5 39.5 0 0 0 -7.4 5.5l-.5.6c1.4.7 2.9 1.2 4.2 2 5.4 2.9 9.5 7.1 11.4 12.9 3.1 9.1 1.1 17.2-5.2 24.3a27.5 27.5 0 0 1 -16.9 8.7 41.8 41.8 0 0 1 -10.6.2 34 34 0 0 0 -11.9.8 17 17 0 0 0 -6.7 3.4 37.2 37.2 0 0 1 -6.6 4.6 12.9 12.9 0 0 1 -6.9 1.7h-.2c-1.8-.3-3.1-1.5-1.6-3.5a47.3 47.3 0 0 0 3.2-4.6c3-5.3 2.7-10.6-.4-15.7-1.6-2.7-3.5-5.3-5.3-8a23.3 23.3 0 0 1 -2.4-23c3.4-8 9.3-13.1 17.7-15.1a27.6 27.6 0 0 1 4-.6c.7-.1 1.5.1 2.2 0 6.4-.2 12 2.1 17.2 5.6zm16.5-26.2h-.3l-9.8-3.7a1.6 1.6 0 0 0 -1.5.2l-6.5 4.5c-.3.2-.3.7-.5 1s.1.4.2.6c2.3 6.4 4.7 12.9 7.1 19.3l1.8 4.7a3.8 3.8 0 0 0 .3 1c.2.6.5.7 1.1.5l.7-.2 5.7-3 12.5-7.4c1.8-1 3.6-2.2 5.4-3.3 0-.3.3-.7.2-1-.7-2.5-1.4-5-2.2-7.6a1.9 1.9 0 0 0 -.9-.9l-10.6-3.8zm-16.4 32.5-.7-.8a29.6 29.6 0 0 0 -7.9-5.3 20.4 20.4 0 0 0 -7.7-2 22.1 22.1 0 0 0 -8.1.7 20.6 20.6 0 0 0 -10.1 6.5 21.7 21.7 0 0 0 -5 11.7 17.5 17.5 0 0 0 1 8.5 28.1 28.1 0 0 0 4.3 7.3 2.5 2.5 0 0 0 .4.7c2.1 3.3 4.2 6.6 5.3 10.5a16.2 16.2 0 0 1 .6 5.8 18.7 18.7 0 0 1 -2.8 8.2l-1.1 1.9v.2l1.2-.5a35.4 35.4 0 0 0 6.4-4.2 40.2 40.2 0 0 1 5.1-3.3 26.5 26.5 0 0 1 11.4-2.4c1.9-.1 3.9.1 5.8.1a50 50 0 0 0 9.5-.4 27.6 27.6 0 0 0 7.6-2.5 20.5 20.5 0 0 0 6.5-5.2 20.9 20.9 0 0 0 3.9-6.6 20.2 20.2 0 0 0 1.1-8.1 21 21 0 0 0 -2-6.9 18.8 18.8 0 0 0 -8.2-8.3 30.3 30.3 0 0 0 -12.9-3.2 2.2 2.2 0 0 1 -1.7-.7z" fill="#63339e"/><path d="m71.4 62.1a21 21 0 0 0 -2-6.9 18.8 18.8 0 0 0 -8.2-8.3 30.3 30.3 0 0 0 -12.9-3.2 2.2 2.2 0 0 1 -1.7-.7l-1.9-1.7-.7-.8a29.6 29.6 0 0 0 -7.9-5.3 20.4 20.4 0 0 0 -7.7-2 22.1 22.1 0 0 0 -8.1.7 20.6 20.6 0 0 0 -10.1 6.5 21.7 21.7 0 0 0 -5 11.7 16.4 16.4 0 0 0 1 8.5 30.3 30.3 0 0 0 4.7 8c2.1 3.3 4.2 6.6 5.3 10.5a16.2 16.2 0 0 1 .6 5.8 18.7 18.7 0 0 1 -2.8 8.2l-1.1 1.9v.2l1.2-.5a35.4 35.4 0 0 0 6.4-4.2 40.2 40.2 0 0 1 5.1-3.3 26.5 26.5 0 0 1 11.4-2.4c1.9-.1 3.9.1 5.8.1a50 50 0 0 0 9.5-.4 27.6 27.6 0 0 0 7.6-2.5 20.5 20.5 0 0 0 6.5-5.2 20.9 20.9 0 0 0 3.9-6.6 20.2 20.2 0 0 0 1.1-8.1z" fill="#8036b6"/><path d="m53 36.9c-.6.2-.9.1-1.1-.5a3.8 3.8 0 0 1 -.3-1 4.3 4.3 0 0 0 .2-1.1c.1-4.2.1-8.5.2-12.8 0-2.5.1-5 .1-7.4l.3-.2 2.1.9 8.7 3.2 3.7 1.2-.7.9-5.6 7-6.5 8.1z" fill="#cbaaff"/><path d="m53 36.9 1.1-1.6 6.5-8.1 5.6-7 .7-.9 6.8 2.4 3.6 1.3c-1.8 1.1-3.6 2.3-5.4 3.3l-12.5 7.4-5.7 3z" fill="#ac82ee"/><path d="m52.1 14.1c0 2.4-.1 4.9-.1 7.4-.1 4.3-.1 8.6-.2 12.8a4.3 4.3 0 0 1 -.2 1.1l-1.8-4.7c-2.4-6.4-4.8-12.9-7.1-19.3-.1-.2-.1-.4-.2-.6h1l4.5 1.8c1.4.4 2.8 1 4.1 1.5z" fill="#ac82ee"/><path d="m77.3 23-3.6-1.3-6.8-2.4c-.2-.4-.2-.8-.4-1.1l-2.7-7.7c-.1-.2 0-.4 0-.7l10.6 3.8a1.9 1.9 0 0 1 .9.9c.8 2.6 1.5 5.1 2.2 7.6.1.2-.2.6-.2.9z" fill="#c19efb"/><path d="m52.1 14.1c-1.3-.5-2.7-1.1-4.1-1.5l-4.5-1.7h-1c.2-.3.2-.8.5-1l6.5-4.5a1.6 1.6 0 0 1 1.5-.3l9.8 3.6h.3l-.3.3-8.4 4.8z" fill="#c19efd"/><path d="m52.4 13.9 8.4-4.8.3-.3 2.7.9c0 .3-.1.5 0 .7l2.7 7.7c.2.3.2.7.4 1.1l-3.7-1.2-8.7-3.2z" fill="#dac1ff"/></g></svg>