<svg xmlns="http://www.w3.org/2000/svg" width="622.3" height="99" viewBox="0 0 622.3 99"><title>logo_wide</title><path d="M44.1,34.5c.1-1.1.1-2.1.1-3.2A48.5,48.5,0,0,0,42.6,25c-1.6-4.6-3.3-9.2-5-13.7-.1-.2-.1-.4-.2-.5-.6-1.9-.3-3,1.3-4.1l6.8-5L47.2.6A5.6,5.6,0,0,1,51.6.3L76,9.1a4.3,4.3,0,0,1,2.9,3.1c.9,3,1.8,5.9,2.6,8.9s-.1,4-2.3,5.3c-4.4,2.6-8.8,5.2-13.1,7.9a36.5,36.5,0,0,0-7.4,5.5l-.5.6c1.4.7,2.9,1.2,4.2,2,5.4,2.9,9.5,7.1,11.4,12.9,3.1,9.1,1.1,17.2-5.2,24.3a27.5,27.5,0,0,1-16.8,8.7,42.7,42.7,0,0,1-10.7.2,34,34,0,0,0-11.9.8,16.4,16.4,0,0,0-6.7,3.4,41.2,41.2,0,0,1-6.6,4.6A12.5,12.5,0,0,1,9.1,99H8.9c-1.9-.3-3.2-1.5-1.6-3.5a28.5,28.5,0,0,0,3.1-4.6c3-5.3,2.7-10.6-.4-15.7-1.6-2.7-3.5-5.3-5.3-8a23.2,23.2,0,0,1-2.4-23c3.4-8,9.3-13.1,17.7-15.1a25.7,25.7,0,0,1,4-.6c.7-.1,1.5.1,2.2,0,6.4-.2,12.1,2.1,17.3,5.6ZM60.6,8.3h-.3L50.5,4.6a1.6,1.6,0,0,0-1.5.2L42.5,9.3c-.3.2-.3.7-.5,1s.1.4.2.6c2.3,6.4,4.7,12.9,7.1,19.3l1.8,4.7.3,1c.2.6.5.7,1.2.5l.6-.2,5.7-3,12.5-7.4c1.8-1,3.6-2.2,5.4-3.3.1-.3.3-.7.2-1-.7-2.5-1.4-5-2.2-7.6a2,2,0,0,0-.9-.9L63.3,9.2ZM44.3,40.8l-.8-.8a29.6,29.6,0,0,0-7.9-5.3,20.9,20.9,0,0,0-7.7-2,22.1,22.1,0,0,0-8.1.7,20.3,20.3,0,0,0-10,6.5A20.7,20.7,0,0,0,4.7,51.6a16.4,16.4,0,0,0,1,8.5A27,27,0,0,0,10,67.4a1.6,1.6,0,0,0,.4.7c2.1,3.3,4.2,6.6,5.3,10.5a18.8,18.8,0,0,1,.6,5.8,20,20,0,0,1-2.8,8.2l-1.1,1.9v.2l1.2-.5A45,45,0,0,0,20.1,90a28.9,28.9,0,0,1,5-3.3,25.9,25.9,0,0,1,11.4-2.4c1.9-.1,3.9.1,5.8.1a50.7,50.7,0,0,0,9.5-.4,26.1,26.1,0,0,0,7.6-2.5A23.7,23.7,0,0,0,66,76.3a22.7,22.7,0,0,0,3.8-6.6,20.4,20.4,0,0,0,1.1-8.1A19.2,19.2,0,0,0,60.7,46.4a30.3,30.3,0,0,0-12.9-3.2,2.1,2.1,0,0,1-1.7-.7Z" transform="translate(-0.3 0)" fill="#63339e"/><path d="M70.9,61.6A19.2,19.2,0,0,0,60.7,46.4a30.3,30.3,0,0,0-12.9-3.2,2.1,2.1,0,0,1-1.7-.7l-1.8-1.7-.8-.8a29.6,29.6,0,0,0-7.9-5.3,20.9,20.9,0,0,0-7.7-2,22.1,22.1,0,0,0-8.1.7,20.3,20.3,0,0,0-10,6.5A20.7,20.7,0,0,0,4.7,51.6a16.4,16.4,0,0,0,1,8.5,30.6,30.6,0,0,0,4.7,8c2.1,3.3,4.2,6.6,5.3,10.5a18.8,18.8,0,0,1,.6,5.8,20,20,0,0,1-2.8,8.2l-1.1,1.9v.2l1.2-.5A45,45,0,0,0,20.1,90a28.9,28.9,0,0,1,5-3.3,25.9,25.9,0,0,1,11.4-2.4c1.9-.1,3.9.1,5.8.1a50.7,50.7,0,0,0,9.5-.4,26.1,26.1,0,0,0,7.6-2.5A23.7,23.7,0,0,0,66,76.3a22.7,22.7,0,0,0,3.8-6.6A20.4,20.4,0,0,0,70.9,61.6Z" transform="translate(-0.3 0)" fill="#8036b6"/><path d="M52.6,36.4c-.7.2-1,.1-1.2-.5l-.3-1a4.3,4.3,0,0,0,.2-1.1c.1-4.2.1-8.5.2-12.8,0-2.5.1-5,.1-7.4l.3-.2,2.1.9,8.7,3.2,3.7,1.2-.7.9-5.6,7-6.4,8.1A6.2,6.2,0,0,0,52.6,36.4Z" transform="translate(-0.3 0)" fill="#cbaaff"/><path d="M52.6,36.4a9.1,9.1,0,0,1,1.1-1.6l6.4-8.1,5.6-7,.7-.9,6.8,2.4,3.6,1.3c-1.8,1.1-3.6,2.3-5.4,3.3L58.9,33.2l-5.7,3Z" transform="translate(-0.3 0)" fill="#ac82ee"/><path d="M51.6,13.6c0,2.4-.1,4.9-.1,7.4-.1,4.3-.1,8.6-.2,12.8a4.3,4.3,0,0,1-.2,1.1l-1.8-4.7c-2.4-6.4-4.8-12.9-7.1-19.3-.1-.2-.1-.4-.2-.6h1L47.5,12Z" transform="translate(-0.3 0)" fill="#ac82ee"/><path d="M76.8,22.5l-3.6-1.3-6.8-2.4a3.6,3.6,0,0,0-.4-1.1L63.3,10c-.1-.2,0-.4,0-.7l10.6,3.8a2,2,0,0,1,.9.9c.8,2.6,1.5,5.1,2.2,7.6C77.1,21.8,76.9,22.2,76.8,22.5Z" transform="translate(-0.3 0)" fill="#c19efb"/><path d="M51.6,13.6c-1.3-.5-2.7-1.1-4.1-1.5L43,10.4H42c.2-.3.2-.8.5-1L49,4.9a1.6,1.6,0,0,1,1.5-.2l9.8,3.6h.3l-.3.3-8.4,4.8Z" transform="translate(-0.3 0)" fill="#c19efd"/><path d="M51.9,13.4l8.4-4.8.3-.3,2.7.9c0,.3-.1.5,0,.7L66,17.6a3.6,3.6,0,0,1,.4,1.1l-3.7-1.2L54,14.3Z" transform="translate(-0.3 0)" fill="#dac1ff"/><path d="M100.5,26.3h35.8V38.1H115.5v9.8h18.8V59.2H115.5v18h-15Zm48.1,49.4a15.8,15.8,0,0,1-7-7,22.1,22.1,0,0,1-2.5-11h0a21.7,21.7,0,0,1,2.5-10.9,17.1,17.1,0,0,1,7.1-7,23.4,23.4,0,0,1,10.9-2.4,22.7,22.7,0,0,1,10.8,2.4,17.1,17.1,0,0,1,7.2,6.9,23.2,23.2,0,0,1,2.5,11h0a22.5,22.5,0,0,1-2.5,11.1,16.3,16.3,0,0,1-7.1,6.9A24.4,24.4,0,0,1,159.6,78,24.8,24.8,0,0,1,148.6,75.7Zm14.1-9.5a6.6,6.6,0,0,0,2-3.3,15.6,15.6,0,0,0,.7-5.2h0a15.6,15.6,0,0,0-.7-5.2,7.8,7.8,0,0,0-2.1-3.3,4.6,4.6,0,0,0-3-1.1,4.9,4.9,0,0,0-3.1,1.1,7.7,7.7,0,0,0-2,3.3,15.6,15.6,0,0,0-.7,5.2h0a15.6,15.6,0,0,0,.7,5.2,6,6,0,0,0,2,3.3,4.7,4.7,0,0,0,3.1,1.1A4.9,4.9,0,0,0,162.7,66.2ZM193,75.7a16.3,16.3,0,0,1-7-7,23.2,23.2,0,0,1-2.5-11h0a21.7,21.7,0,0,1,2.6-10.9,16,16,0,0,1,7.1-7A22.7,22.7,0,0,1,204,37.4a23.4,23.4,0,0,1,10.9,2.4,17.5,17.5,0,0,1,7.1,6.9,22.1,22.1,0,0,1,2.5,11h0A22.5,22.5,0,0,1,222,68.8a16.6,16.6,0,0,1-7,6.9,27.5,27.5,0,0,1-22,0Zm14.1-9.5a6,6,0,0,0,2-3.3,15.6,15.6,0,0,0,.7-5.2h0a15.6,15.6,0,0,0-.7-5.2,8.8,8.8,0,0,0-2-3.3,4.9,4.9,0,0,0-6.2,0,8.8,8.8,0,0,0-2,3.3,18.7,18.7,0,0,0-.7,5.2h0a15.6,15.6,0,0,0,.7,5.2,6.6,6.6,0,0,0,2,3.3,4.9,4.9,0,0,0,3.1,1.1A4.7,4.7,0,0,0,207.1,66.2Zm27.8,9.5a15.2,15.2,0,0,1-5.2-7,32.2,32.2,0,0,1-1.7-11h0a32.4,32.4,0,0,1,1.7-11.1,15.4,15.4,0,0,1,5.2-6.9,15,15,0,0,1,8.3-2.3,12.2,12.2,0,0,1,7.2,2.1,11.5,11.5,0,0,1,4.4,5.7h.3V26.3h14.5V77.2H255.1V70.5h-.3a10.3,10.3,0,0,1-4.3,5.5,12.7,12.7,0,0,1-7.3,2A15,15,0,0,1,234.9,75.7Zm17.3-10.3a6.8,6.8,0,0,0,2.1-3,11,11,0,0,0,.8-4.7h0a13.2,13.2,0,0,0-.8-4.7,6.8,6.8,0,0,0-2.1-3,6.4,6.4,0,0,0-3.3-1,5.9,5.9,0,0,0-3.3,1,6.9,6.9,0,0,0-2.2,3,13.2,13.2,0,0,0-.8,4.7h0a12.6,12.6,0,0,0,.8,4.6,6.2,6.2,0,0,0,2.2,3,5.2,5.2,0,0,0,3.3,1.1A6.4,6.4,0,0,0,252.2,65.4Zm71.2,11.8h15.7L322.5,26.3H303.7L287.1,77.2h15.8l2.6-10.1h15.2ZM308.3,56.5,313,38.4h.3L318,56.5Zm38.5,19.2a14.6,14.6,0,0,1-5.2-7,29.8,29.8,0,0,1-1.8-11h0a30,30,0,0,1,1.8-11.1,14.8,14.8,0,0,1,5.2-6.9,14.5,14.5,0,0,1,8.3-2.3,12.2,12.2,0,0,1,7.2,2.1,12.1,12.1,0,0,1,4.4,5.7h.2V26.3h14.5V77.2H366.9V70.5h-.2a11,11,0,0,1-4.4,5.5,12.5,12.5,0,0,1-7.3,2A14.4,14.4,0,0,1,346.8,75.7ZM364,65.4a6.2,6.2,0,0,0,2.2-3,12.9,12.9,0,0,0,.7-4.7h0a13.3,13.3,0,0,0-.7-4.7,7.8,7.8,0,0,0-2.2-3,5.9,5.9,0,0,0-3.3-1,6.1,6.1,0,0,0-3.3,1,6.8,6.8,0,0,0-2.1,3,11.3,11.3,0,0,0-.8,4.7h0a12.7,12.7,0,0,0,.7,4.6,7.8,7.8,0,0,0,2.2,3,5.5,5.5,0,0,0,3.3,1.1A5.9,5.9,0,0,0,364,65.4Zm28.8,10.3a15.2,15.2,0,0,1-5.2-7,32.2,32.2,0,0,1-1.7-11h0a32.4,32.4,0,0,1,1.7-11.1,15.4,15.4,0,0,1,5.2-6.9,15,15,0,0,1,8.3-2.3,12.2,12.2,0,0,1,7.2,2.1,11.5,11.5,0,0,1,4.4,5.7h.3V26.3h14.5V77.2H413V70.5h-.3a10.8,10.8,0,0,1-4.3,5.5,12.7,12.7,0,0,1-7.3,2A14.7,14.7,0,0,1,392.8,75.7Zm17.3-10.3a6.8,6.8,0,0,0,2.1-3,12.8,12.8,0,0,0,.8-4.7h0a13.2,13.2,0,0,0-.8-4.7,6.8,6.8,0,0,0-2.1-3,6.4,6.4,0,0,0-3.3-1,5.9,5.9,0,0,0-3.3,1,6.9,6.9,0,0,0-2.2,3,13.2,13.2,0,0,0-.8,4.7h0a12.6,12.6,0,0,0,.8,4.6,6.2,6.2,0,0,0,2.2,3,5.2,5.2,0,0,0,3.3,1.1A6.4,6.4,0,0,0,410.1,65.4Zm22.8-27.2h14.5v39H432.9Zm2.1-5.5a6.9,6.9,0,0,1,0-9.7,6.9,6.9,0,0,1,5.1-2,6.6,6.6,0,0,1,5.1,2,6.7,6.7,0,0,1,0,9.7,6.9,6.9,0,0,1-5.1,2A7.3,7.3,0,0,1,435,32.7Zm24.8,42.5c-2.3-2-3.5-5.2-3.5-9.8V48.7h-5.2V38.2h5.2V29.7h14.5v8.5h6.8V48.7h-6.8V63.2a4.6,4.6,0,0,0,1,3.4,5.4,5.4,0,0,0,3.3,1h2.5V77.5l-2.8.4h-3.9C465.9,78,462.2,77.1,459.8,75.2Zm22.6-37h14.4v39H482.4Zm2.1-5.5a6.6,6.6,0,0,1-2-4.9,6.5,6.5,0,0,1,2-4.8,7.5,7.5,0,0,1,10.2,0,6.7,6.7,0,0,1,0,9.7,7.5,7.5,0,0,1-10.2,0Zm14.7,5.5h15.6l5.7,27.3h.2l5.5-27.3h15.2l-12.5,39h-17Zm82.1,18.7a20.9,20.9,0,0,0-2.5-10.3,16.2,16.2,0,0,0-6.9-6.8,24.4,24.4,0,0,0-21.1,0,17.9,17.9,0,0,0-6.9,7,22.8,22.8,0,0,0-2.4,10.9h0a23.4,23.4,0,0,0,2.4,10.9,17.1,17.1,0,0,0,7.1,7A22.7,22.7,0,0,0,561.8,78a24,24,0,0,0,8.6-1.3,16.7,16.7,0,0,0,9-7.5A17,17,0,0,0,581,65v-.4H568.2a3.8,3.8,0,0,1-.9,1.3,6.2,6.2,0,0,1-2,1.5,7.6,7.6,0,0,1-3.2.6,6.5,6.5,0,0,1-3.5-.9,5.6,5.6,0,0,1-2.2-2.6,10,10,0,0,1-.8-3.6h25.7Zm-22.8-8.7a5.7,5.7,0,0,1,3.2-.9,5.8,5.8,0,0,1,3.3.9,6.1,6.1,0,0,1,2.1,2.6,6.6,6.6,0,0,1,.6,2H556.2l.2-2A6.1,6.1,0,0,1,558.5,48.2Zm34.9,28.2a14.5,14.5,0,0,1-6.5-4.6,13.2,13.2,0,0,1-2.7-6.8v-.3h14V65a4,4,0,0,0,1.8,2.6,5.8,5.8,0,0,0,3.7,1,9,9,0,0,0,2.5-.3,3.2,3.2,0,0,0,1.5-.9,1.8,1.8,0,0,0,.6-1.3h0a2.2,2.2,0,0,0-1-1.7,11.2,11.2,0,0,0-3.4-1.1l-7.1-1.3a16.5,16.5,0,0,1-8.8-4.1,10.2,10.2,0,0,1-3-7.5h0a10.8,10.8,0,0,1,2.2-6.9,13.7,13.7,0,0,1,6.3-4.5,28.2,28.2,0,0,1,9.7-1.5,25,25,0,0,1,10.1,1.8,14.9,14.9,0,0,1,6.1,4.7,11.9,11.9,0,0,1,2,6.6v.2H608.3v-.3a4,4,0,0,0-1.5-2.5,5.3,5.3,0,0,0-3.6-1.1,5.6,5.6,0,0,0-2.3.4,3.8,3.8,0,0,0-1.5.9,1.7,1.7,0,0,0-.6,1.4h0a2.1,2.1,0,0,0,1,1.7,10.2,10.2,0,0,0,3.6,1.1l7,1.3c4.2.8,7.3,2.1,9.3,3.8a8.9,8.9,0,0,1,2.9,7h0a11.6,11.6,0,0,1-2.4,7.3,15,15,0,0,1-6.6,4.7,27.1,27.1,0,0,1-9.9,1.6A28.6,28.6,0,0,1,593.4,76.4Z" transform="translate(-0.3 0)" fill="#fff"/></svg>