<svg xmlns="http://www.w3.org/2000/svg" version="1.1" viewBox="0 0 180 43">
                            <path fill="#FF6D5A" d="M4.9,29.3c-1.5-.7-2.6-1.6-3.5-2.7-.9-1.1-1.3-2.4-1.4-3.8h5.7c.1.9.5,1.6,1.3,2.1.7.6,1.7.8,2.8.8s1.9-.2,2.5-.6c.6-.4.9-1,.9-1.7s-.4-1.3-1.1-1.6c-.7-.4-1.9-.8-3.6-1.2-1.7-.4-3.1-.8-4.1-1.3-1.1-.4-2-1.1-2.8-2-.8-.9-1.2-2.1-1.2-3.6s.4-2.4,1.1-3.4c.7-1,1.8-1.8,3.1-2.4,1.3-.6,2.9-.9,4.7-.9,2.7,0,4.8.7,6.4,2,1.6,1.3,2.5,3.1,2.6,5.4h-5.5c0-.9-.5-1.6-1.1-2.1-.7-.5-1.6-.8-2.7-.8s-1.8.2-2.4.6c-.6.4-.8.9-.8,1.6s.4,1.3,1.1,1.7c.8.4,1.9.8,3.5,1.2,1.6.4,3,.8,4,1.3,1.1.4,2,1.1,2.8,2,.8.9,1.2,2.1,1.2,3.6,0,1.3-.4,2.5-1.1,3.5-.7,1-1.8,1.8-3.1,2.4-1.3.6-2.9.9-4.7.9s-3.5-.3-5-1Z" />
                            <path fill="#0F65F2" d="M43.4,20.4h-16.5c.1,1.6.7,2.9,1.7,3.8,1,.9,2.2,1.4,3.7,1.4,2.1,0,3.6-.9,4.5-2.7h6.2c-.7,2.2-1.9,3.9-3.7,5.3-1.8,1.4-4.1,2.1-6.8,2.1s-4.1-.5-5.8-1.4c-1.7-1-3.1-2.3-4-4.1-1-1.8-1.4-3.8-1.4-6.1s.5-4.4,1.4-6.1c1-1.8,2.3-3.1,4-4,1.7-.9,3.7-1.4,5.9-1.4s4.1.5,5.8,1.4c1.7.9,3,2.2,4,3.9.9,1.7,1.4,3.6,1.4,5.8s0,1.5-.2,2.2ZM37.6,16.6c0-1.5-.6-2.6-1.6-3.5-1-.9-2.3-1.3-3.8-1.3s-2.6.4-3.6,1.3c-1,.8-1.6,2-1.8,3.5h10.7Z" />
                            <path fill="#0F65F2" d="M67.6,20.4h-16.5c.1,1.6.7,2.9,1.7,3.8,1,.9,2.2,1.4,3.7,1.4,2.1,0,3.6-.9,4.5-2.7h6.2c-.7,2.2-1.9,3.9-3.7,5.3-1.8,1.4-4.1,2.1-6.8,2.1s-4.1-.5-5.8-1.4c-1.7-1-3.1-2.3-4-4.1-1-1.8-1.4-3.8-1.4-6.1s.5-4.4,1.4-6.1c1-1.8,2.3-3.1,4-4,1.7-.9,3.7-1.4,5.9-1.4s4.1.5,5.8,1.4c1.7.9,3,2.2,4,3.9.9,1.7,1.4,3.6,1.4,5.8s0,1.5-.2,2.2ZM61.9,16.6c0-1.5-.6-2.6-1.6-3.5-1-.9-2.3-1.3-3.8-1.3s-2.6.4-3.6,1.3c-1,.8-1.6,2-1.8,3.5h10.7Z" />
                            <path fill="#0F65F2" d="M84.4,30l-7.7-9.6v9.6h-5.7V0h5.7v17l7.6-9.5h7.4l-9.9,11.3,10,11.2h-7.4Z" />
                            <path fill="#0F65F2" d="M99.6,0v30h-5.7V0h5.7Z" />
                            <path fill="#0F65F2" d="M108.5,28.9c-1.7-1-3.1-2.3-4.1-4.1-1-1.8-1.5-3.8-1.5-6.1s.5-4.3,1.5-6.1c1-1.8,2.4-3.1,4.2-4.1,1.8-1,3.7-1.4,5.9-1.4s4.1.5,5.9,1.4c1.8,1,3.2,2.3,4.2,4.1,1,1.8,1.5,3.8,1.5,6.1s-.5,4.3-1.6,6.1c-1,1.8-2.5,3.1-4.2,4.1-1.8,1-3.8,1.4-6,1.4s-4.1-.5-5.9-1.4ZM117.3,24.6c.9-.5,1.6-1.2,2.2-2.2.5-1,.8-2.2.8-3.6,0-2.1-.6-3.8-1.7-4.9-1.1-1.1-2.5-1.7-4.1-1.7s-3,.6-4.1,1.7c-1.1,1.1-1.7,2.8-1.7,4.9s.5,3.8,1.6,4.9c1.1,1.1,2.4,1.7,4.1,1.7s2-.2,2.9-.7Z" />
                            <path fill="#0F65F2" d="M142.7,8.2c1.3.7,2.3,1.5,3,2.6v-3.2h5.7v22.6c0,2.1-.4,3.9-1.3,5.6-.8,1.6-2.1,2.9-3.8,3.9-1.7,1-3.7,1.4-6.1,1.4s-5.8-.7-7.9-2.2c-2.1-1.5-3.2-3.5-3.5-6.1h5.7c.3,1,.9,1.8,1.9,2.4,1,.6,2.2.9,3.6.9s3-.5,4-1.5c1-1,1.5-2.5,1.5-4.5v-3.5c-.7,1.1-1.7,1.9-3,2.6-1.3.7-2.8,1.1-4.4,1.1s-3.6-.5-5.2-1.5c-1.6-1-2.8-2.3-3.7-4.1-.9-1.8-1.4-3.8-1.4-6.1s.5-4.3,1.4-6c.9-1.8,2.1-3.1,3.7-4,1.6-.9,3.3-1.4,5.2-1.4s3.2.3,4.4,1ZM145,15.2c-.5-1-1.3-1.7-2.2-2.3-.9-.5-1.9-.8-3-.8s-2,.3-2.9.8c-.9.5-1.6,1.3-2.2,2.2-.6,1-.8,2.2-.8,3.5s.3,2.5.8,3.5c.6,1,1.3,1.8,2.2,2.3.9.5,1.9.8,2.9.8s2.1-.3,3-.8c.9-.5,1.7-1.3,2.2-2.3.5-1,.8-2.2.8-3.5s-.3-2.6-.8-3.5Z" />
                            <path fill="#0F65F2" d="M160.4,28.9c-1.7-1-3.1-2.3-4.1-4.1-1-1.8-1.5-3.8-1.5-6.1s.5-4.3,1.5-6.1c1-1.8,2.4-3.1,4.2-4.1,1.8-1,3.7-1.4,5.9-1.4s4.1.5,5.9,1.4c1.8,1,3.2,2.3,4.2,4.1,1,1.8,1.5,3.8,1.5,6.1s-.5,4.3-1.6,6.1c-1,1.8-2.5,3.1-4.2,4.1-1.8,1-3.8,1.4-6,1.4s-4.1-.5-5.9-1.4ZM169.1,24.6c.9-.5,1.6-1.2,2.2-2.2.5-1,.8-2.2.8-3.6,0-2.1-.6-3.8-1.7-4.9-1.1-1.1-2.5-1.7-4.1-1.7s-3,.6-4.1,1.7c-1.1,1.1-1.7,2.8-1.7,4.9s.5,3.8,1.6,4.9c1.1,1.1,2.4,1.7,4.1,1.7s2-.2,2.9-.7Z" />
                        </svg>
