<svg width="969" height="248" viewBox="0 0 969 248" fill="none" xmlns="http://www.w3.org/2000/svg">
<g clip-path="url(#clip0_1840_3356)">
<path d="M17.0765 97.3531H112.286V123.959L76.4803 126.696C18.6637 130.987 0.550781 146.227 0.550781 188.861V197.467C0.550781 228.735 22.585 247.5 56.43 247.5C83.1792 247.5 98.4445 241.237 117.421 221.985H120.479V242.327H158.642V55.8325H17.0765V97.3531ZM112.286 187.284C100.615 199.021 82.7824 206.838 68.2174 206.838C52.4853 206.838 45.8097 200.969 46.1832 188.072C46.58 170.072 53.1856 165.781 83.5294 163.044L112.239 160.307L112.286 187.284Z" fill="#FF8D00"/>
<path d="M911.401 130.987L883.064 128.204C867.332 126.65 863.388 122.729 863.388 110.227C863.388 96.147 868.896 92.6212 890.93 92.6212C910.607 92.6212 916.116 95.7527 918.94 109.044H963.009C961.818 64.4614 948.047 53.1418 893.358 53.1418C833.557 53.1418 818.666 64.4614 818.666 110.227C818.666 151.979 829.683 163.392 874.148 167.683L897.373 170.003C918.216 171.974 923.328 175.871 923.328 188.397C923.328 203.637 917.026 207.557 891.467 207.557C869.036 207.557 863.131 204.031 861.964 189.557H817.358C818.525 235.693 832.694 247.43 889.367 247.43C952.388 247.43 968.05 234.928 968.05 184.083C968.05 146.227 956.636 135.278 911.401 130.987Z" fill="#3A57FC"/>
<path d="M675.326 134.513C675.326 74.2035 654.459 53.188 594.658 53.188C534.858 53.188 512.427 80.5359 512.427 148.569C512.427 222.796 532.897 247.5 599 247.5C646.593 247.5 666.69 233.049 673.342 192.363H628.107C622.995 204.889 617.486 207.626 598.206 207.626C569.1 207.626 561.607 199.415 560.043 164.621H672.082C674.019 154.693 675.093 144.626 675.326 134.513ZM560.44 127.856C560.837 101.667 571.457 91.8787 596.619 91.8787C621.781 91.8787 630.464 101.667 631.258 127.856H560.44Z" fill="#3A57FC"/>
<path d="M313.745 55.9253H240.173V0H193.351V242.42H240.173V97.7474H307.046V242.42H353.869V93.8505H313.745V55.9253Z" fill="#3A57FC"/>
<path d="M701.679 64.1134V242.42H748.502V95.7294H804.754V55.9253H748.502V50.8222C748.898 39.8737 751.653 36.7655 760.709 36.7655H811.85V0H756.764C719.395 0 701.679 11.3428 701.679 64.1134Z" fill="#3A57FC"/>
<path d="M388.484 242.42H435.307V99.6959H504.958V55.9253H388.484V242.42Z" fill="#3A57FC"/>
</g>
<defs>
<clipPath id="clip0_1840_3356">
<rect width="967.5" height="247.5" fill="white" transform="translate(0.550781)"/>
</clipPath>
</defs>
</svg>
