<svg height="32" viewBox="0 0 27 32" width="27" xmlns="http://www.w3.org/2000/svg"><path d="m26.6 7-.2-.5-.6-2.2a2.3 2.3 0 0 0 -1.3-1.4l-7.5-2.7h-.8l-1.1.1-.6.3-2.1 1.7a1.5 1.5 0 0 0 -.6 1.9v.2h.1l1.5 4.2a10.5 10.5 0 0 1 .4 1.7 8.5 8.5 0 0 0 -4.7-1.4h-.9l-1.3.2a8.3 8.3 0 0 0 -5.9 5 7.6 7.6 0 0 0 .8 7.7 3.5 3.5 0 0 0 .5.8l1.1 1.7a4 4 0 0 1 .1 4.2l-.9 1.3a1.2 1.2 0 0 0 -.3 1.3 1.5 1.5 0 0 0 1.1.8h.3a4.6 4.6 0 0 0 2.3-.6 10.7 10.7 0 0 0 2.2-1.5 5.1 5.1 0 0 1 1.8-.9 9.9 9.9 0 0 1 2.4-.3h4.5a9.5 9.5 0 0 0 5.6-2.9 7.8 7.8 0 0 0 1.7-8.1 7.6 7.6 0 0 0 -3.8-4.3l-.5-.3 1.6-1.2h.1l4-2.4a1.9 1.9 0 0 0 1-2.4zm-20.1 19.8a7.5 7.5 0 0 0 -.3-2 10.9 10.9 0 0 0 -1.7-3.4h-.1a8.6 8.6 0 0 1 -1.3-2 6.5 6.5 0 0 1 -.2-2.4 6.1 6.1 0 0 1 1.4-3.3 5.9 5.9 0 0 1 2.8-1.8l1.7-.2h.6a5.1 5.1 0 0 1 2.1.6 9.1 9.1 0 0 1 2.3 1.5l.2.2h.1l.5.5a1.8 1.8 0 0 0 1 .4 8.1 8.1 0 0 1 3.7.9 5.1 5.1 0 0 1 2.3 2.3 10.5 10.5 0 0 1 .5 1.9 4.1 4.1 0 0 1 -.3 2.2 5.2 5.2 0 0 1 -1.1 1.9 4.9 4.9 0 0 1 -1.8 1.4 8.3 8.3 0 0 1 -2.2.8h-4.7a9.5 9.5 0 0 0 -3.7.8 9.5 9.5 0 0 0 -1.7 1l-.5.4a7.5 7.5 0 0 0 .4-1.7z"/></svg>